<svg xmlns="http://www.w3.org/2000/svg" width="1279.997" height="1279.997" fill-rule="evenodd" clip-rule="evenodd" image-rendering="optimizeQuality" shape-rendering="geometricPrecision" text-rendering="geometricPrecision" viewBox="0 0 13333.33 13333.33" id="instagram-logo"><defs><linearGradient id="a" x1="9549.87" x2="3783.46" y1="1496" y2="11837.33" gradientUnits="userSpaceOnUse"><stop offset="0" stop-color="#4845a2"></stop><stop offset=".278" stop-color="#a844a1"></stop><stop offset=".302" stop-color="#a844a1"></stop><stop offset=".38" stop-color="#a844a1"></stop><stop offset=".6" stop-color="#d7233e"></stop><stop offset=".6" stop-color="#d7233e"></stop><stop offset=".871" stop-color="#f8a325"></stop><stop offset="1" stop-color="#f8dd25"></stop></linearGradient></defs><circle cx="6666.67" cy="6666.67" r="4358.02" fill="url(#a)"></circle><path fill="#fff" d="M7884.98 4445.25l-2436.63 0c-544.52,0 -990.17,445.65 -990.17,990.17l0 2462.49c0,544.52 445.65,990.17 990.17,990.17l2436.63 0c544.52,0 990.17,-445.65 990.17,-990.17l0 -2462.49c0,-544.52 -445.65,-990.17 -990.17,-990.17zm581.02 3224.51l0 0c0,442.61 -363.52,806.13 -806.13,806.13l-1984.89 0c-444.13,0 -806.13,-363.52 -806.13,-806.13l0 -2004.67c0,-444.13 362,-806.13 806.13,-806.13l1984.89 0c442.61,0 806.13,362 806.13,806.13l0 2004.67z"></path><path fill="#fff" fill-rule="nonzero" d="M6666.67 5570.79c-603.83,0 -1095.12,492.8 -1095.12,1096.64 0,603.83 491.28,1095.11 1095.12,1095.11 603.83,0 1096.64,-491.28 1096.64,-1095.11 0,-603.83 -492.8,-1096.64 -1096.64,-1096.64zm0 1822.15l0 0c-400.02,0 -725.52,-325.49 -725.52,-725.51 0,-400.02 325.5,-725.51 725.52,-725.51 400.02,0 725.52,325.49 725.52,725.51 0,400.02 -325.49,725.51 -725.52,725.51z"></path><path fill="#fff" d="M7764.13 5676.78c124.72,0 225.11,-100.39 225.11,-223.59 0,-124.72 -100.38,-225.11 -225.11,-225.11 -123.2,0 -223.59,100.39 -223.59,225.11 0,123.2 100.39,223.59 223.59,223.59z"></path><rect width="13333.33" height="13333.33" fill="none"></rect></svg>