<?xml version="1.0" encoding="utf-8"?>
<!-- Generator: Adobe Illustrator 25.1.0, SVG Export Plug-In . SVG Version: 6.00 Build 0)  -->
<!DOCTYPE svg PUBLIC "-//W3C//DTD SVG 1.1//EN" "http://www.w3.org/Graphics/SVG/1.1/DTD/svg11.dtd" [
	<!ENTITY ns_extend "http://ns.adobe.com/Extensibility/1.0/">
	<!ENTITY ns_ai "http://ns.adobe.com/AdobeIllustrator/10.0/">
	<!ENTITY ns_graphs "http://ns.adobe.com/Graphs/1.0/">
	<!ENTITY ns_vars "http://ns.adobe.com/Variables/1.0/">
	<!ENTITY ns_imrep "http://ns.adobe.com/ImageReplacement/1.0/">
	<!ENTITY ns_sfw "http://ns.adobe.com/SaveForWeb/1.0/">
	<!ENTITY ns_custom "http://ns.adobe.com/GenericCustomNamespace/1.0/">
	<!ENTITY ns_adobe_xpath "http://ns.adobe.com/XPath/1.0/">
]>
<svg version="1.1" id="Layer_1" xmlns:x="&ns_extend;" xmlns:i="&ns_ai;" xmlns:graph="&ns_graphs;"
	 xmlns="http://www.w3.org/2000/svg" xmlns:xlink="http://www.w3.org/1999/xlink" x="0px" y="0px" viewBox="0 0 800 800"
	 style="enable-background:new 0 0 800 800;" xml:space="preserve">
<style type="text/css">
	.st0{fill:#7360F2;}
	.st1{fill:#FFFFFF;}
</style>
<metadata>
	<sfw  xmlns="&ns_sfw;">
		<slices></slices>
		<sliceSourceBounds  bottomLeftOrigin="true" height="824.5" width="824.5" x="-96.3" y="-79"></sliceSourceBounds>
	</sfw>
</metadata>
<rect x="-12.2" y="-12.2" class="st0" width="824.5" height="824.5"/>
<g>
	<path class="st1" d="M603.8,189c-13.8-12.7-69.5-53.2-193.7-53.7c0,0-146.4-8.8-217.8,56.6c-39.7,39.7-53.7,97.9-55.2,170
		c-1.5,72.1-3.4,207.2,126.8,243.8h0.1l-0.1,55.9c0,0-0.8,22.6,14.1,27.2c18,5.6,28.6-11.6,45.8-30.1c9.4-10.2,22.5-25.1,32.3-36.6
		c89.1,7.5,157.6-9.6,165.3-12.2c18-5.8,119.7-18.9,136.3-153.9C674.9,316.8,649.6,228.7,603.8,189z M618.9,446
		c-14,112.8-96.5,119.9-111.7,124.8c-6.5,2.1-66.6,17-142.3,12.1c0,0-56.4,68-74,85.7c-2.7,2.8-6,3.9-8.1,3.3
		c-3-0.7-3.9-4.3-3.8-9.6c0-7.5,0.5-92.9,0.5-92.9s-0.1,0,0,0c-110.2-30.6-103.7-145.6-102.5-205.8s12.6-109.5,46.2-142.7
		c60.4-54.7,184.7-46.5,184.7-46.5c105,0.5,155.3,32.1,167,42.7C613.6,250.3,633.3,329.7,618.9,446L618.9,446z"/>
	<path class="st1" d="M461.2,365.7c-3.7,0-6.8-2.9-7-6.7c-1.2-23.8-12.4-35.5-35.3-36.7c-3.9-0.3-6.7-3.7-6.4-7.6
		c0.3-3.7,3.5-6.6,7.2-6.5c30.2,1.7,47,18.9,48.6,50c0.2,3.9-2.8,7.2-6.7,7.4c0,0,0,0,0,0H461.2z"/>
	<path class="st1" d="M497.2,377.8h-0.2c-3.9-0.1-6.9-3.3-6.9-7.2c0.5-24-6.3-43.4-21-59.4c-14.6-16-34.6-24.6-61.2-26.6
		c-3.9-0.3-6.8-3.7-6.5-7.5c0.3-3.9,3.7-6.8,7.5-6.5c29.9,2.2,53.6,12.7,70.5,31.1s25.3,41.8,24.6,69.2
		C504.2,374.7,501,377.8,497.2,377.8z"/>
	<path class="st1" d="M534.1,392.2c-3.9,0-7-3.1-7-7c-0.3-42.9-12.7-75.7-37.8-100.2c-24.8-24.2-56.1-36.5-93.1-36.8
		c-3.9,0-7-3.2-7-7c0-3.9,3.2-7,7-7h0.1c40.7,0.3,75.3,14,102.8,40.8s41.7,63.9,42,110.2C541.2,389,538,392.2,534.1,392.2
		L534.1,392.2z"/>
	<path class="st1" d="M420.6,452.7c0,0,9.9,0.8,15.2-5.7l10.4-13c5-6.5,17.1-10.6,28.9-4c8.9,5,17.4,10.5,25.7,16.4
		c7.8,5.8,23.9,19.2,23.9,19.2c7.6,6.5,9.4,15.9,4.2,25.9c0,0.1,0,0.2,0,0.2c-5.7,9.9-13,18.9-21.6,26.6c-0.1,0-0.1,0.1-0.2,0.1
		c-7.4,6.2-14.7,9.7-21.9,10.6c-1.1,0.2-2.1,0.3-3.2,0.2c-3.2,0-6.3-0.5-9.3-1.4l-0.2-0.3c-11-3.1-29.5-10.9-60.2-27.9
		c-17.8-9.7-34.7-20.9-50.6-33.4c-8-6.3-15.6-13-22.7-20.2l-0.8-0.8l-0.8-0.8l0,0l-0.8-0.8c-0.3-0.2-0.5-0.5-0.8-0.8
		c-7.2-7.2-13.9-14.8-20.2-22.7c-12.5-15.9-23.7-32.8-33.4-50.6c-16.9-30.7-24.7-49.1-27.9-60.2l-0.3-0.2c-1-3-1.5-6.2-1.4-9.3
		c-0.1-1.1,0-2.1,0.2-3.2c0.9-7.2,4.4-14.5,10.6-21.9c0-0.1,0.1-0.1,0.1-0.2c7.6-8.6,16.6-15.8,26.6-21.6c0,0,0.1,0,0.2,0
		c10-5.2,19.5-3.4,25.9,4.2c0,0,13.4,16.1,19.2,23.9c5.9,8.3,11.4,16.9,16.4,25.8c6.6,11.8,2.5,23.9-4,28.9l-13,10.4
		c-6.6,5.3-5.7,15.2-5.7,15.2S348.5,434.3,420.6,452.7z"/>
</g>
</svg>
