<svg xmlns="http://www.w3.org/2000/svg" width="24" height="25" fill="none" viewBox="0 0 24 25" id="odnoklassniki"><rect width="24" height="24" y=".135" fill="url(#paint0_linear_302_4424)" rx="8"></rect><path fill="#fff" fill-rule="evenodd" d="M10.7455 7.63636C10.7455 6.83304 11.3967 6.18182 12.2 6.18182C13.0034 6.18182 13.6546 6.83304 13.6546 7.63636C13.6546 8.43968 13.0034 9.0909 12.2 9.0909C11.3967 9.0909 10.7455 8.43968 10.7455 7.63636ZM12.2 4C10.1917 4 8.56365 5.62806 8.56365 7.63636C8.56365 9.64466 10.1917 11.2727 12.2 11.2727C14.2083 11.2727 15.8364 9.64466 15.8364 7.63636C15.8364 5.62806 14.2083 4 12.2 4ZM7.24007 12.4801C7.63771 11.9499 8.38986 11.8424 8.92006 12.2401C9.27967 12.5097 10.5792 13.2001 12.2 13.2001C13.8209 13.2001 15.1204 12.5097 15.48 12.2401C16.0102 11.8424 16.7623 11.9499 17.16 12.4801C17.5576 13.0102 17.4502 13.7624 16.92 14.1601C16.3869 14.5598 15.2362 15.1753 13.7511 15.454L16.2486 17.9515C16.7172 18.4201 16.7172 19.1799 16.2486 19.6486C15.7799 20.1171 15.0202 20.1171 14.5516 19.6486L12.2001 17.2971L9.84864 19.6486C9.38002 20.1171 8.62022 20.1171 8.15159 19.6486C7.68297 19.1799 7.68297 18.4201 8.15159 17.9515L10.6491 15.454C9.16396 15.1753 8.01314 14.5598 7.48007 14.1601C6.94988 13.7624 6.84243 13.0102 7.24007 12.4801Z" clip-rule="evenodd"></path><defs><linearGradient id="paint0_linear_302_4424" x1="0" x2="24" y1="12.135" y2="12.135" gradientUnits="userSpaceOnUse"><stop stop-color="#ED6D6B"></stop><stop offset="1" stop-color="#F0B076"></stop></linearGradient></defs></svg>