<svg xmlns="http://www.w3.org/2000/svg" width="512" height="512" id="vk"><switch><g><path fill="#4D77A2" d="M508 256.879c0 138.066-111.934 250-250 250-138.067 0-250-111.934-250-250 0-138.067 111.933-250 250-250 138.066 0 250 111.933 250 250zm0 0"></path><path fill="#FFF" fill-rule="evenodd" d="M248.557 366.527h19.627s5.919-.647 8.943-3.917c2.78-2.997 2.698-8.617 2.698-8.617s-.392-26.329 11.837-30.202c12.056-3.83 27.505 25.438 43.912 36.687 12.403 8.53 21.825 6.659 21.825 6.659l43.824-.609s22.936-1.414 12.056-19.448c-.893-1.485-6.332-13.344-32.597-37.715-27.482-25.503-23.806-21.391 9.313-65.52 20.171-26.874 28.223-43.278 25.72-50.309-2.415-6.702-17.233-4.917-17.233-4.917l-49.374.304s-3.655-.5-6.375 1.11c-2.655 1.588-4.353 5.31-4.353 5.31s-7.812 20.805-18.234 38.469c-21.978 37.343-30.769 39.301-34.359 36.995-8.355-5.419-6.267-21.714-6.267-33.291 0-36.17 5.483-51.25-10.685-55.142-5.353-1.303-9.313-2.157-23.021-2.285-17.625-.196-32.531.046-40.974 4.178-5.614 2.742-9.944 8.881-7.311 9.226 3.264.433 10.662 2.004 14.579 7.336 5.048 6.874 4.874 22.32 4.874 22.32s2.916 42.587-6.789 47.874c-6.659 3.64-15.776-3.786-35.382-37.647-10.031-17.34-17.604-36.508-17.604-36.508s-1.458-3.571-4.069-5.489c-3.177-2.329-7.594-3.063-7.594-3.063l-46.895.302s-7.048.193-9.637 3.264c-2.285 2.717-.171 8.356-.171 8.356s36.707 85.909 78.29 129.194c38.123 39.707 81.426 37.095 81.426 37.095zm0 0" clip-rule="evenodd"></path></g></switch></svg>